<?xml version="1.0" encoding="iso-8859-1"?>
<!-- Generator: Adobe Illustrator 30.8.0, SVG Export Plug-In . SVG Version: 9.03 Build 0)  -->
<svg version="1.1" id="Layer_1" xmlns="http://www.w3.org/2000/svg" xmlns:xlink="http://www.w3.org/1999/xlink" x="0px" y="0px"
	 viewBox="0 0 430 590" style="enable-background:new 0 0 430 590;" xml:space="preserve">
<line style="fill:none;stroke:#000000;stroke-width:1.4;stroke-miterlimit:10;" x1="78" y1="53" x2="78" y2="152"/>
<line style="fill:none;stroke:#000000;stroke-width:1.4;stroke-miterlimit:10;" x1="78" y1="160" x2="78" y2="259"/>
<line style="fill:none;stroke:#000000;stroke-width:2;stroke-miterlimit:10;" x1="93" y1="152" x2="63" y2="152"/>
<line style="fill:none;stroke:#000000;stroke-width:2;stroke-miterlimit:10;" x1="93" y1="160" x2="63" y2="160"/>
<line style="fill:none;stroke:#000000;stroke-width:1.4;stroke-miterlimit:10;" x1="338" y1="53" x2="338" y2="152"/>
<line style="fill:none;stroke:#000000;stroke-width:1.4;stroke-miterlimit:10;" x1="338" y1="160" x2="338" y2="259"/>
<line style="fill:none;stroke:#000000;stroke-width:2;stroke-miterlimit:10;" x1="353" y1="152" x2="323" y2="152"/>
<line style="fill:none;stroke:#000000;stroke-width:2;stroke-miterlimit:10;" x1="353" y1="160" x2="323" y2="160"/>
<line style="fill:none;stroke:#000000;stroke-width:1.4;stroke-miterlimit:10;" x1="86.25" y1="50.25" x2="117.919" y2="80.53"/>
<line style="fill:none;stroke:#000000;stroke-width:1.4;stroke-miterlimit:10;" x1="122.978" y1="85.367" x2="154.647" y2="115.647"/>
<line style="fill:none;stroke:#000000;stroke-width:2;stroke-miterlimit:10;" x1="126.903" y1="71.134" x2="108.935" y2="89.926"/>
<line style="fill:none;stroke:#000000;stroke-width:2;stroke-miterlimit:10;" x1="131.962" y1="75.971" x2="113.994" y2="94.763"/>
<line style="fill:none;stroke:#000000;stroke-width:1.4;stroke-miterlimit:10;" x1="154.647" y1="115.647" x2="314.24" y2="268.24"/>
<line style="fill:none;stroke:#000000;stroke-width:1.4;stroke-miterlimit:10;" x1="329.75" y1="50.25" x2="298.081" y2="80.53"/>
<line style="fill:none;stroke:#000000;stroke-width:1.4;stroke-miterlimit:10;" x1="293.022" y1="85.367" x2="261.353" y2="115.647"/>
<line style="fill:none;stroke:#000000;stroke-width:2;stroke-miterlimit:10;" x1="307.065" y1="89.926" x2="289.097" y2="71.134"/>
<line style="fill:none;stroke:#000000;stroke-width:2;stroke-miterlimit:10;" x1="302.006" y1="94.763" x2="284.038" y2="75.971"/>
<line style="fill:none;stroke:#000000;stroke-width:1.4;stroke-miterlimit:10;" x1="261.353" y1="115.647" x2="101.76" y2="268.24"/>
<line style="fill:none;stroke:#000000;stroke-width:1.4;stroke-miterlimit:10;" x1="111" y1="292" x2="204" y2="292"/>
<line style="fill:none;stroke:#000000;stroke-width:1.4;stroke-miterlimit:10;" x1="212" y1="292" x2="305" y2="292"/>
<line style="fill:none;stroke:#000000;stroke-width:2;stroke-miterlimit:10;" x1="204" y1="277" x2="204" y2="307"/>
<line style="fill:none;stroke:#000000;stroke-width:2;stroke-miterlimit:10;" x1="212" y1="277" x2="212" y2="307"/>
<line style="fill:none;stroke:#000000;stroke-width:1.4;stroke-miterlimit:10;" x1="338" y1="325" x2="338" y2="358"/>
<line style="fill:none;stroke:#000000;stroke-width:1.4;stroke-miterlimit:10;" x1="338" y1="365" x2="338" y2="398"/>
<line style="fill:none;stroke:#000000;stroke-width:2;stroke-miterlimit:10;" x1="352" y1="358" x2="324" y2="358"/>
<line style="fill:none;stroke:#000000;stroke-width:2;stroke-miterlimit:10;" x1="352" y1="365" x2="324" y2="365"/>
<line style="fill:none;stroke:#000000;stroke-width:1.4;stroke-miterlimit:10;" x1="338" y1="450" x2="338" y2="483"/>
<line style="fill:none;stroke:#000000;stroke-width:1.4;stroke-miterlimit:10;" x1="338" y1="490" x2="338" y2="523"/>
<line style="fill:none;stroke:#000000;stroke-width:2;stroke-miterlimit:10;" x1="352" y1="483" x2="324" y2="483"/>
<line style="fill:none;stroke:#000000;stroke-width:2;stroke-miterlimit:10;" x1="352" y1="490" x2="324" y2="490"/>
<circle style="fill:#FFFFFF;stroke:#000000;stroke-width:1.4;stroke-miterlimit:10;" cx="78" cy="42" r="11"/>
<circle style="fill:#FFFFFF;stroke:#000000;stroke-width:1.4;stroke-miterlimit:10;" cx="338" cy="42" r="11"/>
<circle style="fill:#FFFFFF;stroke:#000000;stroke-width:1.4;stroke-miterlimit:10;" cx="78" cy="292" r="33"/>
<circle style="fill:#FFFFFF;stroke:#000000;stroke-width:1.4;stroke-miterlimit:10;" cx="338" cy="292" r="33"/>
<circle style="fill:#FFFFFF;stroke:#000000;stroke-width:1.4;stroke-miterlimit:10;" cx="338" cy="424" r="26"/>
<circle style="fill:#FFFFFF;stroke:#000000;stroke-width:1.4;stroke-miterlimit:10;" cx="338" cy="534" r="11"/>
<g>
	<path d="M42.209,46.872l-4.16-10.737h1.538l2.791,7.8c0.225,0.625,0.413,1.211,0.564,1.758c0.166-0.586,0.359-1.172,0.579-1.758
		l2.9-7.8h1.45l-4.204,10.737H42.209z"/>
	<path d="M48.481,50.597l0.846,0.126c0.036,0.261,0.134,0.451,0.295,0.57c0.216,0.161,0.511,0.242,0.885,0.242
		c0.403,0,0.714-0.081,0.933-0.242c0.219-0.161,0.367-0.387,0.444-0.677c0.045-0.177,0.066-0.549,0.063-1.117
		c-0.38,0.448-0.854,0.672-1.421,0.672c-0.706,0-1.252-0.254-1.639-0.764s-0.58-1.12-0.58-1.832c0-0.49,0.089-0.942,0.266-1.356
		s0.434-0.734,0.771-0.959s0.732-0.338,1.187-0.338c0.606,0,1.105,0.245,1.499,0.734v-0.619h0.803v4.438
		c0,0.799-0.082,1.366-0.244,1.699c-0.163,0.333-0.42,0.597-0.773,0.791s-0.787,0.29-1.303,0.29c-0.612,0-1.107-0.138-1.484-0.414
		C48.65,51.566,48.468,51.151,48.481,50.597z M49.202,47.513c0,0.674,0.134,1.165,0.401,1.474c0.267,0.31,0.603,0.464,1.005,0.464
		c0.399,0,0.735-0.154,1.005-0.462c0.271-0.308,0.406-0.79,0.406-1.448c0-0.628-0.14-1.102-0.418-1.421
		c-0.279-0.319-0.615-0.479-1.008-0.479c-0.387,0-0.715,0.157-0.986,0.471C49.337,46.428,49.202,46.895,49.202,47.513z"/>
	<path d="M57.183,50.172h-0.87v-5.544c-0.209,0.2-0.484,0.399-0.824,0.599c-0.34,0.2-0.646,0.35-0.916,0.45v-0.841
		c0.486-0.229,0.912-0.506,1.276-0.831c0.364-0.326,0.622-0.642,0.773-0.948h0.561V50.172z"/>
</g>
<g>
	<path d="M361.227,46.872l-4.16-10.737h1.537l2.791,7.8c0.225,0.625,0.412,1.211,0.564,1.758c0.166-0.586,0.358-1.172,0.578-1.758
		l2.9-7.8h1.45l-4.204,10.737H361.227z"/>
	<path d="M367.498,50.597l0.846,0.126c0.035,0.261,0.134,0.451,0.295,0.57c0.216,0.161,0.511,0.242,0.885,0.242
		c0.402,0,0.714-0.081,0.934-0.242c0.219-0.161,0.367-0.387,0.443-0.677c0.046-0.177,0.066-0.549,0.063-1.117
		c-0.38,0.448-0.854,0.672-1.421,0.672c-0.706,0-1.252-0.254-1.639-0.764s-0.58-1.12-0.58-1.832c0-0.49,0.088-0.942,0.266-1.356
		s0.434-0.734,0.771-0.959c0.336-0.226,0.732-0.338,1.186-0.338c0.606,0,1.105,0.245,1.499,0.734v-0.619h0.803v4.438
		c0,0.799-0.081,1.366-0.244,1.699s-0.421,0.597-0.773,0.791s-0.787,0.29-1.303,0.29c-0.612,0-1.106-0.138-1.484-0.414
		C367.667,51.566,367.484,51.151,367.498,50.597z M368.219,47.513c0,0.674,0.133,1.165,0.4,1.474
		c0.268,0.31,0.604,0.464,1.006,0.464c0.399,0,0.734-0.154,1.006-0.462c0.27-0.308,0.406-0.79,0.406-1.448
		c0-0.628-0.141-1.102-0.419-1.421c-0.278-0.319-0.614-0.479-1.008-0.479c-0.387,0-0.716,0.157-0.986,0.471
		C368.354,46.428,368.219,46.895,368.219,47.513z"/>
	<path d="M377.494,49.335v0.836h-4.684c-0.007-0.209,0.027-0.411,0.102-0.604c0.119-0.319,0.311-0.633,0.572-0.942
		c0.264-0.31,0.643-0.667,1.139-1.073c0.771-0.631,1.291-1.132,1.562-1.501c0.271-0.369,0.406-0.718,0.406-1.046
		c0-0.345-0.124-0.636-0.37-0.873s-0.568-0.355-0.965-0.355c-0.418,0-0.754,0.126-1.005,0.377c-0.251,0.251-0.379,0.6-0.382,1.044
		l-0.895-0.092c0.062-0.667,0.292-1.175,0.691-1.525c0.399-0.35,0.936-0.524,1.609-0.524c0.68,0,1.219,0.188,1.615,0.566
		c0.396,0.377,0.594,0.844,0.594,1.401c0,0.284-0.058,0.562-0.174,0.836c-0.115,0.274-0.309,0.562-0.577,0.865
		c-0.27,0.303-0.716,0.719-1.342,1.248c-0.522,0.438-0.856,0.735-1.005,0.892s-0.271,0.313-0.367,0.471H377.494z"/>
</g>
<g>
	<path d="M361.227,538.872l-4.16-10.737h1.537l2.791,7.801c0.225,0.625,0.412,1.211,0.564,1.758
		c0.166-0.586,0.358-1.172,0.578-1.758l2.9-7.801h1.45l-4.204,10.737H361.227z"/>
	<path d="M367.498,542.598l0.846,0.125c0.035,0.262,0.134,0.451,0.295,0.57c0.216,0.162,0.511,0.242,0.885,0.242
		c0.402,0,0.714-0.08,0.934-0.242c0.219-0.16,0.367-0.387,0.443-0.676c0.046-0.178,0.066-0.55,0.063-1.117
		c-0.38,0.447-0.854,0.672-1.421,0.672c-0.706,0-1.252-0.254-1.639-0.764s-0.58-1.12-0.58-1.832c0-0.49,0.088-0.941,0.266-1.355
		s0.434-0.734,0.771-0.96c0.336-0.226,0.732-0.339,1.186-0.339c0.606,0,1.105,0.245,1.499,0.734v-0.618h0.803v4.438
		c0,0.8-0.081,1.366-0.244,1.699s-0.421,0.597-0.773,0.79s-0.787,0.291-1.303,0.291c-0.612,0-1.106-0.139-1.484-0.414
		C367.667,543.566,367.484,543.151,367.498,542.598z M368.219,539.514c0,0.674,0.133,1.164,0.4,1.474s0.604,0.464,1.006,0.464
		c0.399,0,0.734-0.153,1.006-0.461c0.27-0.309,0.406-0.791,0.406-1.448c0-0.628-0.141-1.103-0.419-1.421
		c-0.278-0.319-0.614-0.479-1.008-0.479c-0.387,0-0.716,0.156-0.986,0.471S368.219,538.895,368.219,539.514z"/>
	<path d="M372.815,540.64l0.86-0.136c0.049,0.346,0.183,0.609,0.404,0.793c0.221,0.184,0.529,0.275,0.925,0.275
		c0.399,0,0.696-0.081,0.89-0.244c0.193-0.162,0.29-0.354,0.29-0.572c0-0.197-0.085-0.352-0.257-0.465
		c-0.119-0.076-0.415-0.176-0.889-0.295c-0.639-0.16-1.08-0.3-1.327-0.418c-0.247-0.117-0.434-0.28-0.561-0.488
		c-0.128-0.207-0.19-0.438-0.19-0.688c0-0.229,0.052-0.44,0.156-0.636c0.105-0.195,0.248-0.357,0.428-0.486
		c0.136-0.1,0.32-0.184,0.554-0.254c0.233-0.068,0.484-0.104,0.752-0.104c0.403,0,0.757,0.059,1.062,0.174
		c0.304,0.117,0.529,0.273,0.674,0.472s0.244,0.464,0.3,0.796l-0.851,0.115c-0.039-0.264-0.151-0.471-0.336-0.619
		c-0.186-0.147-0.447-0.222-0.786-0.222c-0.399,0-0.685,0.065-0.855,0.198c-0.171,0.132-0.257,0.287-0.257,0.464
		c0,0.112,0.036,0.214,0.107,0.305c0.07,0.093,0.182,0.171,0.333,0.231c0.087,0.033,0.343,0.107,0.769,0.223
		c0.615,0.164,1.045,0.299,1.289,0.404c0.242,0.104,0.434,0.256,0.572,0.457c0.139,0.199,0.208,0.447,0.208,0.744
		c0,0.289-0.085,0.562-0.254,0.818c-0.169,0.257-0.413,0.455-0.732,0.596c-0.319,0.14-0.681,0.21-1.083,0.21
		c-0.667,0-1.176-0.139-1.525-0.416C373.135,541.596,372.912,541.184,372.815,540.64z"/>
</g>
<g>
	<path d="M73.919,308.16c0.571,0.393,1.099,0.681,1.581,0.863l-0.362,0.856c-0.668-0.241-1.335-0.622-1.999-1.143
		c-0.69,0.386-1.452,0.577-2.285,0.577c-0.843,0-1.606-0.203-2.292-0.609s-1.213-0.977-1.583-1.713
		c-0.371-0.736-0.556-1.566-0.556-2.488c0-0.919,0.186-1.754,0.559-2.508c0.372-0.754,0.902-1.326,1.59-1.721
		c0.688-0.393,1.457-0.59,2.308-0.59c0.858,0,1.633,0.204,2.323,0.612c0.689,0.409,1.216,0.979,1.577,1.714
		c0.362,0.734,0.543,1.562,0.543,2.485c0,0.767-0.116,1.454-0.35,2.066C74.74,307.175,74.389,307.707,73.919,308.16z
		 M71.209,306.586c0.711,0.198,1.297,0.494,1.758,0.889c0.724-0.66,1.086-1.652,1.086-2.978c0-0.753-0.128-1.411-0.384-1.974
		c-0.257-0.563-0.631-1-1.124-1.312c-0.493-0.311-1.046-0.466-1.66-0.466c-0.918,0-1.68,0.313-2.285,0.942
		c-0.604,0.628-0.907,1.566-0.907,2.815c0,1.21,0.299,2.139,0.898,2.786c0.599,0.647,1.363,0.972,2.294,0.972
		c0.44,0,0.855-0.083,1.244-0.248c-0.385-0.25-0.791-0.428-1.219-0.533L71.209,306.586z"/>
	<path d="M76.979,309.156v-9.306h3.206c0.724,0,1.275,0.044,1.656,0.134c0.533,0.122,0.988,0.344,1.365,0.666
		c0.49,0.414,0.857,0.945,1.101,1.59c0.244,0.646,0.365,1.383,0.365,2.213c0,0.706-0.082,1.332-0.247,1.879
		c-0.165,0.545-0.377,0.997-0.635,1.354c-0.259,0.358-0.541,0.64-0.848,0.845s-0.677,0.36-1.111,0.467
		c-0.434,0.105-0.932,0.158-1.494,0.158H76.979z M78.21,308.059h1.987c0.613,0,1.095-0.058,1.443-0.172
		c0.35-0.114,0.628-0.275,0.835-0.482c0.292-0.292,0.52-0.685,0.683-1.178c0.163-0.492,0.244-1.09,0.244-1.793
		c0-0.973-0.159-1.721-0.479-2.244c-0.319-0.522-0.707-0.873-1.164-1.051c-0.33-0.127-0.861-0.189-1.594-0.189H78.21V308.059z"/>
	<path d="M88.561,312.016h-0.754v-4.805c-0.182,0.173-0.42,0.346-0.715,0.52c-0.294,0.173-0.559,0.303-0.794,0.39v-0.729
		c0.422-0.197,0.791-0.438,1.106-0.721c0.315-0.281,0.539-0.555,0.67-0.82h0.486V312.016z"/>
</g>
<g>
	<path d="M333.919,308.16c0.571,0.393,1.099,0.681,1.581,0.863l-0.362,0.856c-0.668-0.241-1.335-0.622-1.999-1.143
		c-0.69,0.386-1.452,0.577-2.285,0.577c-0.843,0-1.606-0.203-2.292-0.609s-1.213-0.977-1.583-1.713
		c-0.371-0.736-0.556-1.566-0.556-2.488c0-0.919,0.186-1.754,0.559-2.508c0.372-0.754,0.902-1.326,1.59-1.721
		c0.688-0.393,1.457-0.59,2.308-0.59c0.858,0,1.633,0.204,2.323,0.612c0.689,0.409,1.216,0.979,1.577,1.714
		c0.362,0.734,0.543,1.562,0.543,2.485c0,0.767-0.116,1.454-0.35,2.066C334.74,307.175,334.389,307.707,333.919,308.16z
		 M331.209,306.586c0.711,0.198,1.297,0.494,1.758,0.889c0.724-0.66,1.086-1.652,1.086-2.978c0-0.753-0.128-1.411-0.384-1.974
		c-0.257-0.563-0.631-1-1.124-1.312c-0.493-0.311-1.046-0.466-1.66-0.466c-0.918,0-1.68,0.313-2.285,0.942
		c-0.604,0.628-0.907,1.566-0.907,2.815c0,1.21,0.299,2.139,0.898,2.786c0.599,0.647,1.363,0.972,2.294,0.972
		c0.44,0,0.855-0.083,1.244-0.248c-0.385-0.25-0.791-0.428-1.219-0.533L331.209,306.586z"/>
	<path d="M336.979,309.156v-9.306h3.206c0.724,0,1.275,0.044,1.656,0.134c0.533,0.122,0.988,0.344,1.365,0.666
		c0.49,0.414,0.857,0.945,1.101,1.59c0.244,0.646,0.365,1.383,0.365,2.213c0,0.706-0.082,1.332-0.247,1.879
		c-0.165,0.545-0.377,0.997-0.635,1.354c-0.259,0.358-0.541,0.64-0.848,0.845s-0.677,0.36-1.111,0.467
		c-0.434,0.105-0.932,0.158-1.494,0.158H336.979z M338.21,308.059h1.987c0.613,0,1.095-0.058,1.443-0.172
		c0.35-0.114,0.628-0.275,0.835-0.482c0.292-0.292,0.52-0.685,0.683-1.178c0.163-0.492,0.244-1.09,0.244-1.793
		c0-0.973-0.159-1.721-0.479-2.244c-0.319-0.522-0.707-0.873-1.164-1.051c-0.33-0.127-0.861-0.189-1.594-0.189h-1.955V308.059z"/>
	<path d="M349.684,311.291v0.725h-4.06c-0.006-0.182,0.023-0.355,0.088-0.523c0.104-0.276,0.269-0.549,0.496-0.816
		c0.228-0.269,0.557-0.578,0.986-0.93c0.668-0.548,1.119-0.981,1.354-1.301c0.234-0.32,0.353-0.623,0.353-0.908
		c0-0.299-0.107-0.551-0.321-0.756c-0.213-0.205-0.492-0.308-0.836-0.308c-0.362,0-0.653,0.108-0.871,0.327
		c-0.218,0.217-0.328,0.52-0.331,0.904l-0.774-0.08c0.053-0.578,0.252-1.018,0.599-1.321c0.347-0.303,0.812-0.454,1.396-0.454
		c0.589,0,1.056,0.163,1.398,0.49c0.344,0.326,0.516,0.731,0.516,1.215c0,0.246-0.05,0.487-0.15,0.725s-0.268,0.487-0.501,0.75
		c-0.233,0.262-0.621,0.623-1.162,1.08c-0.453,0.381-0.743,0.639-0.872,0.773c-0.128,0.136-0.234,0.271-0.318,0.408H349.684z"/>
</g>
<g>
	<path d="M334.604,437.986c0.505,0.35,0.971,0.604,1.398,0.764l-0.32,0.759c-0.592-0.214-1.182-0.55-1.77-1.011
		c-0.609,0.341-1.283,0.512-2.021,0.512c-0.744,0-1.42-0.18-2.026-0.539s-1.073-0.865-1.401-1.518
		c-0.328-0.65-0.491-1.385-0.491-2.201c0-0.812,0.165-1.551,0.494-2.217c0.329-0.667,0.798-1.174,1.407-1.521
		c0.607-0.35,1.288-0.523,2.041-0.523c0.76,0,1.444,0.182,2.055,0.543s1.075,0.866,1.396,1.516c0.319,0.649,0.479,1.383,0.479,2.198
		c0,0.678-0.103,1.286-0.309,1.827C335.33,437.115,335.019,437.586,334.604,437.986z M332.205,436.594
		c0.629,0.177,1.148,0.439,1.556,0.787c0.641-0.584,0.96-1.462,0.96-2.634c0-0.667-0.113-1.249-0.34-1.747
		c-0.227-0.497-0.557-0.884-0.993-1.158c-0.437-0.275-0.926-0.414-1.469-0.414c-0.812,0-1.485,0.279-2.021,0.834
		c-0.535,0.557-0.803,1.387-0.803,2.49c0,1.071,0.265,1.893,0.794,2.466c0.53,0.573,1.207,0.858,2.03,0.858
		c0.39,0,0.757-0.072,1.101-0.219c-0.34-0.221-0.699-0.377-1.078-0.471L332.205,436.594z"/>
	<path d="M337.311,438.869v-8.232h2.835c0.641,0,1.129,0.039,1.466,0.117c0.472,0.109,0.874,0.306,1.207,0.59
		c0.435,0.367,0.76,0.836,0.975,1.407s0.322,1.224,0.322,1.956c0,0.626-0.072,1.18-0.219,1.662
		c-0.146,0.484-0.333,0.883-0.562,1.199c-0.228,0.316-0.478,0.565-0.749,0.747s-0.6,0.319-0.982,0.413
		c-0.385,0.094-0.825,0.141-1.323,0.141H337.311z M338.399,437.896h1.758c0.542,0,0.968-0.05,1.277-0.15
		c0.309-0.102,0.555-0.244,0.738-0.428c0.259-0.258,0.46-0.605,0.604-1.041s0.216-0.965,0.216-1.586
		c0-0.861-0.141-1.523-0.424-1.985c-0.282-0.462-0.626-0.772-1.03-0.929c-0.292-0.113-0.762-0.17-1.409-0.17h-1.729V437.896z"/>
	<path d="M344.961,440.224l0.66-0.104c0.037,0.266,0.14,0.468,0.309,0.608c0.17,0.142,0.406,0.212,0.71,0.212
		c0.307,0,0.534-0.062,0.683-0.188s0.222-0.271,0.222-0.439c0-0.15-0.065-0.27-0.196-0.355c-0.092-0.06-0.318-0.135-0.682-0.227
		c-0.489-0.123-0.828-0.23-1.018-0.32s-0.332-0.215-0.43-0.375c-0.098-0.158-0.146-0.335-0.146-0.527
		c0-0.176,0.04-0.338,0.121-0.487c0.08-0.149,0.189-0.274,0.327-0.372c0.104-0.077,0.245-0.143,0.425-0.195
		c0.179-0.053,0.371-0.08,0.576-0.08c0.309,0,0.58,0.045,0.813,0.134s0.405,0.21,0.517,0.362c0.111,0.151,0.188,0.354,0.23,0.609
		l-0.652,0.088c-0.03-0.202-0.115-0.359-0.258-0.474s-0.343-0.171-0.603-0.171c-0.306,0-0.524,0.051-0.655,0.152
		s-0.197,0.22-0.197,0.355c0,0.087,0.027,0.164,0.082,0.234s0.139,0.131,0.256,0.178c0.066,0.024,0.263,0.081,0.589,0.17
		c0.472,0.126,0.802,0.229,0.987,0.31c0.188,0.08,0.334,0.196,0.439,0.351c0.106,0.152,0.16,0.343,0.16,0.57
		c0,0.223-0.065,0.432-0.195,0.628s-0.316,0.349-0.562,0.456s-0.521,0.161-0.83,0.161c-0.511,0-0.901-0.106-1.169-0.319
		C345.206,440.956,345.035,440.641,344.961,440.224z"/>
</g>
<g>
	<path d="M33.565,165.5l1.326,0.335c-0.278,1.089-0.778,1.92-1.5,2.492s-1.605,0.858-2.649,0.858c-1.08,0-1.958-0.22-2.635-0.66
		s-1.192-1.077-1.545-1.911s-0.53-1.729-0.53-2.687c0-1.043,0.199-1.954,0.598-2.731s0.966-1.367,1.702-1.771
		s1.546-0.605,2.43-0.605c1.002,0,1.846,0.255,2.529,0.766s1.16,1.228,1.429,2.153l-1.306,0.308c-0.232-0.729-0.57-1.26-1.012-1.593
		s-0.998-0.499-1.668-0.499c-0.77,0-1.414,0.185-1.931,0.554s-0.881,0.865-1.09,1.487s-0.314,1.264-0.314,1.924
		c0,0.852,0.124,1.596,0.373,2.232s0.635,1.111,1.159,1.425s1.091,0.472,1.702,0.472c0.743,0,1.372-0.214,1.887-0.643
		S33.383,166.344,33.565,165.5z"/>
	<path d="M35.905,172.491l0.79,0.117c0.033,0.244,0.125,0.421,0.275,0.533c0.202,0.15,0.477,0.226,0.826,0.226
		c0.376,0,0.666-0.075,0.871-0.226s0.343-0.361,0.415-0.632c0.042-0.166,0.062-0.513,0.059-1.042
		c-0.355,0.418-0.797,0.627-1.327,0.627c-0.659,0-1.168-0.238-1.529-0.713c-0.361-0.475-0.542-1.045-0.542-1.71
		c0-0.457,0.083-0.879,0.248-1.266c0.166-0.386,0.405-0.685,0.72-0.896c0.314-0.21,0.684-0.316,1.107-0.316
		c0.565,0,1.032,0.229,1.399,0.686v-0.578h0.749v4.142c0,0.746-0.076,1.275-0.228,1.586c-0.152,0.312-0.393,0.557-0.722,0.738
		c-0.329,0.181-0.734,0.271-1.216,0.271c-0.571,0-1.033-0.128-1.385-0.386C36.063,173.396,35.893,173.009,35.905,172.491z
		 M36.577,169.613c0,0.629,0.125,1.087,0.375,1.376c0.25,0.289,0.562,0.433,0.938,0.433c0.373,0,0.686-0.144,0.938-0.431
		s0.379-0.738,0.379-1.352c0-0.586-0.13-1.028-0.39-1.326s-0.574-0.447-0.941-0.447c-0.361,0-0.667,0.146-0.92,0.44
		C36.704,168.6,36.577,169.035,36.577,169.613z"/>
	<path d="M44.026,172.094h-0.812v-5.175c-0.196,0.187-0.452,0.373-0.769,0.559c-0.317,0.187-0.603,0.327-0.855,0.42v-0.785
		c0.454-0.213,0.851-0.472,1.191-0.776s0.581-0.599,0.722-0.884h0.523V172.094z"/>
	<path d="M49.44,172.094v-0.604c-0.304,0.475-0.75,0.713-1.34,0.713c-0.382,0-0.733-0.105-1.053-0.316s-0.568-0.504-0.745-0.882
		c-0.176-0.377-0.264-0.812-0.264-1.302c0-0.479,0.08-0.912,0.239-1.302c0.159-0.39,0.398-0.688,0.717-0.896
		s0.675-0.312,1.069-0.312c0.289,0,0.546,0.061,0.771,0.183c0.226,0.122,0.409,0.28,0.55,0.476v-2.373h0.808v6.614H49.44z
		 M46.873,169.703c0,0.613,0.129,1.072,0.388,1.376s0.564,0.456,0.916,0.456c0.354,0,0.656-0.145,0.904-0.435
		c0.248-0.291,0.372-0.733,0.372-1.329c0-0.655-0.126-1.137-0.379-1.443c-0.252-0.307-0.564-0.46-0.934-0.46
		c-0.361,0-0.663,0.147-0.905,0.442C46.994,168.604,46.873,169.068,46.873,169.703z"/>
	<path d="M54.304,172.094h-0.812v-5.175c-0.196,0.187-0.452,0.373-0.769,0.559c-0.317,0.187-0.603,0.327-0.855,0.42v-0.785
		c0.454-0.213,0.851-0.472,1.191-0.776s0.581-0.599,0.722-0.884h0.523V172.094z"/>
</g>
<g>
	<path d="M368.23,165.5l1.326,0.335c-0.277,1.089-0.778,1.92-1.5,2.492c-0.723,0.572-1.605,0.858-2.649,0.858
		c-1.08,0-1.958-0.22-2.636-0.66c-0.676-0.44-1.191-1.077-1.545-1.911c-0.353-0.834-0.529-1.729-0.529-2.687
		c0-1.043,0.199-1.954,0.598-2.731c0.399-0.777,0.967-1.367,1.703-1.771c0.735-0.403,1.545-0.605,2.43-0.605
		c1.002,0,1.846,0.255,2.529,0.766s1.16,1.228,1.429,2.153l-1.306,0.308c-0.232-0.729-0.57-1.26-1.012-1.593
		s-0.998-0.499-1.668-0.499c-0.77,0-1.414,0.185-1.932,0.554c-0.517,0.369-0.881,0.865-1.09,1.487s-0.314,1.264-0.314,1.924
		c0,0.852,0.124,1.596,0.373,2.232c0.248,0.636,0.635,1.111,1.158,1.425s1.092,0.472,1.702,0.472c0.743,0,1.372-0.214,1.887-0.643
		S368.049,166.344,368.23,165.5z"/>
	<path d="M370.57,172.491l0.789,0.117c0.033,0.244,0.125,0.421,0.275,0.533c0.202,0.15,0.477,0.226,0.826,0.226
		c0.376,0,0.666-0.075,0.871-0.226c0.204-0.15,0.343-0.361,0.414-0.632c0.043-0.166,0.062-0.513,0.06-1.042
		c-0.354,0.418-0.798,0.627-1.327,0.627c-0.658,0-1.168-0.238-1.529-0.713s-0.541-1.045-0.541-1.71c0-0.457,0.082-0.879,0.248-1.266
		c0.166-0.386,0.405-0.685,0.72-0.896c0.313-0.21,0.684-0.316,1.107-0.316c0.565,0,1.032,0.229,1.399,0.686v-0.578h0.748v4.142
		c0,0.746-0.076,1.275-0.228,1.586c-0.151,0.312-0.393,0.557-0.722,0.738c-0.33,0.181-0.734,0.271-1.217,0.271
		c-0.57,0-1.033-0.128-1.385-0.386C370.729,173.396,370.559,173.009,370.57,172.491z M371.242,169.613
		c0,0.629,0.125,1.087,0.375,1.376c0.25,0.289,0.562,0.433,0.938,0.433c0.373,0,0.687-0.144,0.938-0.431s0.379-0.738,0.379-1.352
		c0-0.586-0.13-1.028-0.391-1.326c-0.26-0.298-0.573-0.447-0.94-0.447c-0.36,0-0.667,0.146-0.921,0.44
		C371.369,168.6,371.242,169.035,371.242,169.613z"/>
	<path d="M379.9,171.313v0.781h-4.371c-0.007-0.195,0.025-0.383,0.094-0.564c0.111-0.298,0.29-0.591,0.535-0.88
		c0.245-0.289,0.6-0.623,1.062-1.001c0.719-0.589,1.205-1.057,1.457-1.401c0.253-0.344,0.379-0.67,0.379-0.977
		c0-0.322-0.115-0.593-0.345-0.814c-0.23-0.221-0.53-0.332-0.9-0.332c-0.392,0-0.704,0.118-0.938,0.352
		c-0.234,0.235-0.354,0.56-0.356,0.975l-0.835-0.086c0.058-0.623,0.272-1.097,0.646-1.423c0.373-0.326,0.874-0.489,1.503-0.489
		c0.635,0,1.137,0.176,1.506,0.528c0.371,0.352,0.556,0.788,0.556,1.308c0,0.265-0.054,0.525-0.163,0.781
		c-0.107,0.256-0.287,0.525-0.539,0.808c-0.25,0.283-0.668,0.671-1.252,1.164c-0.486,0.409-0.8,0.687-0.938,0.833
		c-0.139,0.146-0.253,0.292-0.344,0.439H379.9z"/>
	<path d="M384.105,172.094v-0.604c-0.303,0.475-0.75,0.713-1.34,0.713c-0.382,0-0.732-0.105-1.053-0.316s-0.568-0.504-0.745-0.882
		c-0.176-0.377-0.264-0.812-0.264-1.302c0-0.479,0.079-0.912,0.239-1.302c0.159-0.39,0.398-0.688,0.717-0.896
		c0.319-0.208,0.676-0.312,1.07-0.312c0.288,0,0.545,0.061,0.771,0.183c0.225,0.122,0.408,0.28,0.55,0.476v-2.373h0.808v6.614
		H384.105z M381.539,169.703c0,0.613,0.129,1.072,0.388,1.376s0.563,0.456,0.916,0.456c0.354,0,0.656-0.145,0.904-0.435
		c0.248-0.291,0.372-0.733,0.372-1.329c0-0.655-0.126-1.137-0.379-1.443c-0.252-0.307-0.564-0.46-0.934-0.46
		c-0.361,0-0.662,0.147-0.904,0.442C381.66,168.604,381.539,169.068,381.539,169.703z"/>
	<path d="M390.178,171.313v0.781h-4.371c-0.006-0.195,0.025-0.383,0.095-0.564c0.111-0.298,0.29-0.591,0.534-0.88
		c0.246-0.289,0.6-0.623,1.062-1.001c0.719-0.589,1.205-1.057,1.457-1.401c0.254-0.344,0.38-0.67,0.38-0.977
		c0-0.322-0.115-0.593-0.345-0.814c-0.23-0.221-0.531-0.332-0.9-0.332c-0.392,0-0.704,0.118-0.939,0.352
		c-0.234,0.235-0.353,0.56-0.355,0.975l-0.835-0.086c0.058-0.623,0.272-1.097,0.646-1.423c0.373-0.326,0.873-0.489,1.502-0.489
		c0.635,0,1.137,0.176,1.507,0.528s0.556,0.788,0.556,1.308c0,0.265-0.055,0.525-0.163,0.781s-0.288,0.525-0.539,0.808
		s-0.669,0.671-1.252,1.164c-0.487,0.409-0.8,0.687-0.938,0.833c-0.139,0.146-0.252,0.292-0.343,0.439H390.178z"/>
</g>
<g>
	<path d="M148.23,68.5l1.326,0.335c-0.278,1.089-0.778,1.92-1.5,2.492s-1.605,0.858-2.649,0.858c-1.08,0-1.958-0.22-2.635-0.66
		s-1.192-1.077-1.545-1.911s-0.53-1.729-0.53-2.687c0-1.043,0.199-1.954,0.598-2.731s0.966-1.367,1.702-1.771
		s1.546-0.605,2.43-0.605c1.002,0,1.846,0.255,2.529,0.766s1.16,1.228,1.429,2.153l-1.306,0.308c-0.232-0.729-0.57-1.26-1.012-1.593
		s-0.998-0.499-1.668-0.499c-0.77,0-1.414,0.185-1.931,0.554s-0.881,0.865-1.09,1.487s-0.314,1.264-0.314,1.924
		c0,0.852,0.124,1.596,0.373,2.232s0.635,1.111,1.159,1.425s1.091,0.472,1.702,0.472c0.743,0,1.372-0.214,1.887-0.643
		S148.048,69.344,148.23,68.5z"/>
	<path d="M150.57,75.491l0.79,0.117c0.033,0.244,0.125,0.421,0.275,0.533c0.202,0.15,0.477,0.226,0.826,0.226
		c0.376,0,0.666-0.075,0.871-0.226s0.343-0.361,0.415-0.632c0.042-0.166,0.062-0.513,0.059-1.042
		c-0.355,0.418-0.797,0.627-1.327,0.627c-0.659,0-1.168-0.238-1.529-0.713c-0.361-0.475-0.542-1.045-0.542-1.71
		c0-0.457,0.083-0.879,0.248-1.266c0.166-0.386,0.405-0.685,0.72-0.896c0.314-0.21,0.684-0.316,1.107-0.316
		c0.565,0,1.032,0.229,1.399,0.686v-0.578h0.749v4.142c0,0.746-0.076,1.275-0.228,1.586c-0.152,0.312-0.393,0.557-0.722,0.738
		c-0.329,0.181-0.734,0.271-1.216,0.271c-0.571,0-1.033-0.128-1.385-0.386C150.729,76.396,150.559,76.009,150.57,75.491z
		 M151.243,72.613c0,0.629,0.125,1.087,0.375,1.376c0.25,0.289,0.562,0.433,0.938,0.433c0.373,0,0.686-0.144,0.938-0.431
		s0.379-0.738,0.379-1.352c0-0.586-0.13-1.028-0.39-1.326s-0.574-0.447-0.941-0.447c-0.361,0-0.667,0.146-0.92,0.44
		C151.369,71.6,151.243,72.035,151.243,72.613z"/>
	<path d="M158.691,75.094h-0.812v-5.175c-0.196,0.187-0.452,0.373-0.769,0.559c-0.317,0.187-0.603,0.327-0.855,0.42v-0.785
		c0.454-0.213,0.851-0.472,1.191-0.776s0.581-0.599,0.722-0.884h0.523V75.094z"/>
	<path d="M164.106,75.094V74.49c-0.304,0.475-0.75,0.713-1.34,0.713c-0.382,0-0.733-0.105-1.053-0.316s-0.568-0.504-0.745-0.882
		c-0.176-0.377-0.264-0.812-0.264-1.302c0-0.479,0.08-0.912,0.239-1.302c0.159-0.39,0.398-0.688,0.717-0.896
		s0.675-0.312,1.069-0.312c0.289,0,0.546,0.061,0.771,0.183c0.226,0.122,0.409,0.28,0.55,0.476V68.48h0.808v6.614H164.106z
		 M161.539,72.703c0,0.613,0.129,1.072,0.388,1.376s0.564,0.456,0.916,0.456c0.354,0,0.656-0.145,0.904-0.435
		c0.248-0.291,0.372-0.733,0.372-1.329c0-0.655-0.126-1.137-0.379-1.443c-0.252-0.307-0.564-0.46-0.934-0.46
		c-0.361,0-0.663,0.147-0.905,0.442C161.66,71.604,161.539,72.068,161.539,72.703z"/>
	<path d="M170.178,74.313v0.781h-4.372c-0.006-0.195,0.025-0.383,0.095-0.564c0.111-0.298,0.29-0.591,0.535-0.88
		c0.245-0.289,0.599-0.623,1.062-1.001c0.719-0.589,1.205-1.057,1.457-1.401c0.253-0.344,0.379-0.67,0.379-0.977
		c0-0.322-0.115-0.593-0.345-0.814c-0.23-0.221-0.53-0.332-0.9-0.332c-0.391,0-0.704,0.118-0.938,0.352
		c-0.234,0.235-0.353,0.56-0.356,0.975l-0.834-0.086c0.057-0.623,0.272-1.097,0.645-1.423c0.373-0.326,0.874-0.489,1.502-0.489
		c0.635,0,1.137,0.176,1.507,0.528c0.37,0.352,0.555,0.788,0.555,1.308c0,0.265-0.054,0.525-0.163,0.781
		c-0.108,0.256-0.288,0.525-0.539,0.808s-0.668,0.671-1.252,1.164c-0.487,0.409-0.8,0.687-0.938,0.833
		c-0.138,0.146-0.252,0.292-0.343,0.439H170.178z"/>
</g>
<g>
	<path d="M253.564,68.5l1.326,0.335c-0.277,1.089-0.777,1.92-1.5,2.492s-1.605,0.858-2.648,0.858c-1.08,0-1.959-0.22-2.636-0.66
		s-1.192-1.077-1.545-1.911s-0.53-1.729-0.53-2.687c0-1.043,0.199-1.954,0.599-2.731s0.966-1.367,1.702-1.771
		s1.546-0.605,2.43-0.605c1.003,0,1.846,0.255,2.529,0.766s1.16,1.228,1.43,2.153l-1.307,0.308c-0.232-0.729-0.569-1.26-1.012-1.593
		c-0.441-0.333-0.998-0.499-1.668-0.499c-0.77,0-1.414,0.185-1.931,0.554s-0.881,0.865-1.091,1.487
		c-0.209,0.622-0.314,1.264-0.314,1.924c0,0.852,0.125,1.596,0.373,2.232s0.635,1.111,1.158,1.425
		c0.524,0.314,1.092,0.472,1.703,0.472c0.742,0,1.371-0.214,1.887-0.643C253.034,69.979,253.383,69.344,253.564,68.5z"/>
	<path d="M255.904,75.491l0.79,0.117c0.033,0.244,0.125,0.421,0.275,0.533c0.202,0.15,0.477,0.226,0.825,0.226
		c0.377,0,0.666-0.075,0.871-0.226s0.344-0.361,0.415-0.632c0.042-0.166,0.062-0.513,0.06-1.042
		c-0.355,0.418-0.798,0.627-1.327,0.627c-0.659,0-1.169-0.238-1.529-0.713c-0.361-0.475-0.542-1.045-0.542-1.71
		c0-0.457,0.083-0.879,0.248-1.266c0.166-0.386,0.406-0.685,0.721-0.896c0.313-0.21,0.684-0.316,1.107-0.316
		c0.564,0,1.031,0.229,1.398,0.686v-0.578h0.748v4.142c0,0.746-0.075,1.275-0.227,1.586c-0.152,0.312-0.393,0.557-0.723,0.738
		c-0.329,0.181-0.734,0.271-1.216,0.271c-0.571,0-1.033-0.128-1.385-0.386C256.062,76.396,255.893,76.009,255.904,75.491z
		 M256.577,72.613c0,0.629,0.125,1.087,0.374,1.376c0.25,0.289,0.562,0.433,0.939,0.433c0.373,0,0.686-0.144,0.938-0.431
		c0.253-0.287,0.379-0.738,0.379-1.352c0-0.586-0.129-1.028-0.39-1.326s-0.573-0.447-0.94-0.447c-0.361,0-0.668,0.146-0.921,0.44
		S256.577,72.035,256.577,72.613z"/>
	<path d="M265.234,74.313v0.781h-4.371c-0.006-0.195,0.025-0.383,0.095-0.564c0.111-0.298,0.29-0.591,0.534-0.88
		c0.246-0.289,0.6-0.623,1.062-1.001c0.719-0.589,1.205-1.057,1.457-1.401c0.254-0.344,0.38-0.67,0.38-0.977
		c0-0.322-0.115-0.593-0.345-0.814c-0.23-0.221-0.531-0.332-0.9-0.332c-0.392,0-0.704,0.118-0.939,0.352
		c-0.234,0.235-0.353,0.56-0.355,0.975l-0.835-0.086c0.058-0.623,0.272-1.097,0.646-1.423c0.373-0.326,0.873-0.489,1.502-0.489
		c0.635,0,1.137,0.176,1.507,0.528s0.556,0.788,0.556,1.308c0,0.265-0.055,0.525-0.163,0.781s-0.288,0.525-0.539,0.808
		s-0.669,0.671-1.252,1.164c-0.487,0.409-0.8,0.687-0.938,0.833c-0.139,0.146-0.252,0.292-0.343,0.439H265.234z"/>
	<path d="M269.44,75.094V74.49c-0.304,0.475-0.751,0.713-1.341,0.713c-0.381,0-0.732-0.105-1.053-0.316s-0.568-0.504-0.744-0.882
		s-0.264-0.812-0.264-1.302c0-0.479,0.079-0.912,0.238-1.302c0.16-0.39,0.398-0.688,0.718-0.896s0.675-0.312,1.069-0.312
		c0.289,0,0.546,0.061,0.771,0.183c0.226,0.122,0.408,0.28,0.551,0.476V68.48h0.807v6.614H269.44z M266.873,72.703
		c0,0.613,0.129,1.072,0.389,1.376c0.258,0.304,0.563,0.456,0.916,0.456c0.354,0,0.656-0.145,0.904-0.435
		c0.248-0.291,0.371-0.733,0.371-1.329c0-0.655-0.125-1.137-0.379-1.443c-0.252-0.307-0.563-0.46-0.934-0.46
		c-0.361,0-0.662,0.147-0.904,0.442C266.994,71.604,266.873,72.068,266.873,72.703z"/>
	<path d="M274.304,75.094h-0.812v-5.175c-0.196,0.187-0.453,0.373-0.77,0.559c-0.317,0.187-0.603,0.327-0.855,0.42v-0.785
		c0.455-0.213,0.852-0.472,1.191-0.776s0.58-0.599,0.722-0.884h0.523V75.094z"/>
</g>
<g>
	<path d="M207.327,322.5l1.326,0.336c-0.278,1.089-0.778,1.92-1.501,2.491c-0.722,0.571-1.605,0.858-2.648,0.858
		c-1.08,0-1.959-0.221-2.636-0.66s-1.191-1.076-1.545-1.91c-0.353-0.834-0.529-1.73-0.529-2.688c0-1.043,0.199-1.953,0.598-2.73
		c0.399-0.777,0.967-1.367,1.702-1.771c0.736-0.403,1.546-0.604,2.431-0.604c1.002,0,1.846,0.255,2.529,0.766
		c0.684,0.51,1.159,1.228,1.429,2.152l-1.306,0.309c-0.232-0.729-0.57-1.261-1.012-1.594c-0.442-0.332-0.998-0.498-1.668-0.498
		c-0.771,0-1.414,0.184-1.932,0.553c-0.517,0.369-0.881,0.865-1.09,1.487c-0.21,0.622-0.314,1.264-0.314,1.925
		c0,0.852,0.124,1.596,0.372,2.231c0.249,0.636,0.635,1.11,1.159,1.425c0.523,0.314,1.091,0.473,1.702,0.473
		c0.742,0,1.371-0.215,1.887-0.643C206.796,323.979,207.145,323.344,207.327,322.5z"/>
	<path d="M209.815,329.094v-4.791h0.727v0.672c0.15-0.234,0.351-0.423,0.601-0.566c0.249-0.143,0.533-0.214,0.853-0.214
		c0.354,0,0.646,0.073,0.873,0.222c0.227,0.146,0.387,0.354,0.48,0.617c0.379-0.559,0.872-0.839,1.479-0.839
		c0.476,0,0.841,0.132,1.097,0.396c0.256,0.263,0.384,0.668,0.384,1.215v3.289h-0.808v-3.018c0-0.325-0.026-0.559-0.079-0.701
		c-0.053-0.144-0.148-0.259-0.287-0.346c-0.138-0.088-0.301-0.131-0.487-0.131c-0.337,0-0.616,0.111-0.839,0.336
		s-0.334,0.583-0.334,1.076v2.783h-0.812v-3.113c0-0.36-0.066-0.631-0.199-0.812c-0.132-0.181-0.349-0.271-0.649-0.271
		c-0.229,0-0.439,0.061-0.634,0.18c-0.194,0.121-0.335,0.297-0.422,0.528s-0.131,0.565-0.131,1.002v2.485H209.815z"/>
</g>
<g>
	<path d="M368.23,356.5l1.326,0.336c-0.277,1.089-0.778,1.92-1.5,2.491c-0.723,0.571-1.605,0.858-2.649,0.858
		c-1.08,0-1.958-0.221-2.636-0.66c-0.676-0.439-1.191-1.076-1.545-1.91c-0.353-0.834-0.529-1.73-0.529-2.688
		c0-1.043,0.199-1.953,0.598-2.73c0.399-0.777,0.967-1.367,1.703-1.771c0.735-0.403,1.545-0.604,2.43-0.604
		c1.002,0,1.846,0.255,2.529,0.766c0.684,0.51,1.16,1.228,1.429,2.152l-1.306,0.309c-0.232-0.729-0.57-1.261-1.012-1.594
		c-0.441-0.332-0.998-0.498-1.668-0.498c-0.77,0-1.414,0.184-1.932,0.553c-0.517,0.369-0.881,0.865-1.09,1.487
		s-0.314,1.264-0.314,1.925c0,0.852,0.124,1.596,0.373,2.231c0.248,0.636,0.635,1.11,1.158,1.425s1.092,0.473,1.702,0.473
		c0.743,0,1.372-0.215,1.887-0.643C367.699,357.979,368.049,357.344,368.23,356.5z"/>
	<path d="M370.395,361.664l0.803-0.127c0.045,0.322,0.171,0.568,0.377,0.74s0.494,0.258,0.864,0.258c0.373,0,0.649-0.076,0.83-0.229
		c0.181-0.151,0.271-0.33,0.271-0.534c0-0.184-0.08-0.328-0.238-0.433c-0.111-0.072-0.389-0.164-0.83-0.275
		c-0.596-0.15-1.01-0.281-1.239-0.391s-0.404-0.262-0.523-0.455c-0.118-0.195-0.179-0.409-0.179-0.644
		c0-0.214,0.049-0.411,0.147-0.593c0.098-0.183,0.23-0.334,0.399-0.454c0.126-0.093,0.299-0.172,0.516-0.237
		c0.219-0.064,0.453-0.097,0.702-0.097c0.376,0,0.706,0.054,0.99,0.163c0.284,0.107,0.494,0.254,0.63,0.439
		c0.135,0.186,0.229,0.432,0.279,0.742l-0.794,0.108c-0.036-0.247-0.141-0.439-0.313-0.577c-0.174-0.139-0.418-0.208-0.733-0.208
		c-0.373,0-0.64,0.062-0.798,0.185c-0.16,0.123-0.24,0.268-0.24,0.434c0,0.105,0.033,0.199,0.1,0.284
		c0.066,0.087,0.17,0.159,0.312,0.216c0.081,0.031,0.32,0.1,0.718,0.208c0.574,0.153,0.975,0.279,1.202,0.377
		s0.405,0.239,0.534,0.427c0.129,0.186,0.194,0.418,0.194,0.694c0,0.271-0.079,0.526-0.237,0.765
		c-0.158,0.239-0.385,0.424-0.684,0.555c-0.297,0.131-0.635,0.197-1.01,0.197c-0.623,0-1.098-0.13-1.424-0.389
		S370.484,362.172,370.395,361.664z"/>
	<path d="M378.173,363.094h-0.812v-5.174c-0.196,0.186-0.453,0.373-0.77,0.559c-0.317,0.187-0.603,0.326-0.855,0.42v-0.785
		c0.455-0.213,0.852-0.473,1.191-0.775c0.34-0.305,0.58-0.6,0.722-0.885h0.523V363.094z"/>
	<path d="M383.587,363.094v-0.604c-0.304,0.475-0.751,0.713-1.341,0.713c-0.381,0-0.732-0.105-1.053-0.316s-0.568-0.504-0.744-0.882
		s-0.264-0.812-0.264-1.302c0-0.479,0.079-0.912,0.238-1.302c0.16-0.39,0.398-0.688,0.718-0.896s0.675-0.312,1.069-0.312
		c0.289,0,0.546,0.062,0.771,0.183c0.226,0.122,0.408,0.281,0.551,0.477v-2.373h0.807v6.613H383.587z M381.02,360.703
		c0,0.613,0.129,1.072,0.389,1.376c0.258,0.304,0.563,0.456,0.916,0.456c0.354,0,0.656-0.146,0.904-0.436
		c0.248-0.291,0.371-0.733,0.371-1.329c0-0.655-0.125-1.137-0.379-1.443c-0.252-0.308-0.563-0.46-0.934-0.46
		c-0.361,0-0.662,0.146-0.904,0.441S381.02,360.068,381.02,360.703z"/>
	<path d="M389.659,362.313v0.78h-4.372c-0.006-0.195,0.025-0.383,0.096-0.563c0.111-0.298,0.289-0.591,0.534-0.88
		s0.599-0.623,1.062-1.002c0.719-0.589,1.204-1.057,1.457-1.4s0.38-0.67,0.38-0.977c0-0.322-0.115-0.594-0.346-0.814
		s-0.53-0.332-0.9-0.332c-0.391,0-0.703,0.117-0.938,0.352c-0.234,0.235-0.353,0.561-0.356,0.975l-0.834-0.086
		c0.057-0.622,0.271-1.096,0.645-1.423c0.373-0.326,0.874-0.489,1.502-0.489c0.635,0,1.138,0.176,1.508,0.527
		c0.369,0.353,0.555,0.789,0.555,1.309c0,0.266-0.055,0.525-0.162,0.781c-0.108,0.256-0.289,0.524-0.539,0.807
		c-0.252,0.283-0.669,0.672-1.252,1.164c-0.488,0.41-0.801,0.688-0.939,0.833c-0.138,0.146-0.252,0.292-0.342,0.439H389.659z"/>
</g>
<g>
	<path d="M368.23,477.5l1.326,0.336c-0.277,1.089-0.778,1.92-1.5,2.491c-0.723,0.571-1.605,0.858-2.649,0.858
		c-1.08,0-1.958-0.221-2.636-0.66c-0.676-0.439-1.191-1.076-1.545-1.91c-0.353-0.834-0.529-1.73-0.529-2.688
		c0-1.043,0.199-1.953,0.598-2.73c0.399-0.777,0.967-1.367,1.703-1.771c0.735-0.403,1.545-0.604,2.43-0.604
		c1.002,0,1.846,0.255,2.529,0.766c0.684,0.51,1.16,1.228,1.429,2.152l-1.306,0.309c-0.232-0.729-0.57-1.261-1.012-1.594
		c-0.441-0.332-0.998-0.498-1.668-0.498c-0.77,0-1.414,0.184-1.932,0.553c-0.517,0.369-0.881,0.865-1.09,1.487
		s-0.314,1.264-0.314,1.925c0,0.852,0.124,1.596,0.373,2.231c0.248,0.636,0.635,1.11,1.158,1.425s1.092,0.473,1.702,0.473
		c0.743,0,1.372-0.215,1.887-0.643C367.699,478.979,368.049,478.344,368.23,477.5z"/>
	<path d="M370.395,482.664l0.803-0.127c0.045,0.322,0.171,0.568,0.377,0.74s0.494,0.258,0.864,0.258c0.373,0,0.649-0.076,0.83-0.229
		c0.181-0.151,0.271-0.33,0.271-0.534c0-0.184-0.08-0.328-0.238-0.433c-0.111-0.072-0.389-0.164-0.83-0.275
		c-0.596-0.15-1.01-0.281-1.239-0.391s-0.404-0.262-0.523-0.455c-0.118-0.195-0.179-0.409-0.179-0.644
		c0-0.214,0.049-0.411,0.147-0.593c0.098-0.183,0.23-0.334,0.399-0.454c0.126-0.093,0.299-0.172,0.516-0.237
		c0.219-0.064,0.453-0.097,0.702-0.097c0.376,0,0.706,0.054,0.99,0.163c0.284,0.107,0.494,0.254,0.63,0.439
		c0.135,0.186,0.229,0.432,0.279,0.742l-0.794,0.108c-0.036-0.247-0.141-0.439-0.313-0.577c-0.174-0.139-0.418-0.208-0.733-0.208
		c-0.373,0-0.64,0.062-0.798,0.185c-0.16,0.123-0.24,0.268-0.24,0.434c0,0.105,0.033,0.199,0.1,0.284
		c0.066,0.087,0.17,0.159,0.312,0.216c0.081,0.031,0.32,0.1,0.718,0.208c0.574,0.153,0.975,0.279,1.202,0.377
		s0.405,0.239,0.534,0.427c0.129,0.186,0.194,0.418,0.194,0.694c0,0.271-0.079,0.526-0.237,0.765
		c-0.158,0.239-0.385,0.424-0.684,0.555c-0.297,0.131-0.635,0.197-1.01,0.197c-0.623,0-1.098-0.13-1.424-0.389
		S370.484,483.172,370.395,482.664z"/>
	<path d="M378.173,484.094h-0.812v-5.174c-0.196,0.186-0.453,0.373-0.77,0.559c-0.317,0.187-0.603,0.326-0.855,0.42v-0.785
		c0.455-0.213,0.852-0.473,1.191-0.775c0.34-0.305,0.58-0.6,0.722-0.885h0.523V484.094z"/>
	<path d="M380.329,484.491l0.79,0.117c0.033,0.243,0.125,0.421,0.275,0.532c0.201,0.15,0.477,0.227,0.825,0.227
		c0.376,0,0.666-0.076,0.87-0.227c0.205-0.15,0.344-0.361,0.416-0.631c0.042-0.166,0.062-0.514,0.059-1.043
		c-0.355,0.418-0.797,0.627-1.326,0.627c-0.659,0-1.169-0.237-1.529-0.713c-0.361-0.475-0.542-1.045-0.542-1.709
		c0-0.457,0.083-0.879,0.248-1.266s0.405-0.686,0.72-0.896c0.314-0.21,0.684-0.315,1.107-0.315c0.565,0,1.031,0.229,1.398,0.687
		v-0.578h0.749v4.142c0,0.746-0.075,1.274-0.228,1.586s-0.393,0.558-0.723,0.737c-0.328,0.182-0.734,0.271-1.215,0.271
		c-0.572,0-1.033-0.129-1.385-0.387C380.487,485.396,380.317,485.009,380.329,484.491z M381.002,481.613
		c0,0.629,0.125,1.087,0.374,1.375c0.249,0.289,0.562,0.434,0.938,0.434c0.373,0,0.686-0.144,0.938-0.431s0.379-0.737,0.379-1.352
		c0-0.587-0.13-1.028-0.39-1.326c-0.261-0.298-0.574-0.446-0.941-0.446c-0.361,0-0.668,0.146-0.92,0.439
		C381.128,480.6,381.002,481.035,381.002,481.613z"/>
	<path d="M385.396,482.348l0.812-0.107c0.093,0.46,0.252,0.791,0.476,0.994c0.225,0.203,0.498,0.305,0.819,0.305
		c0.382,0,0.704-0.133,0.968-0.396c0.264-0.266,0.395-0.593,0.395-0.984c0-0.373-0.121-0.68-0.365-0.922s-0.554-0.363-0.93-0.363
		c-0.153,0-0.344,0.029-0.572,0.09l0.09-0.713c0.055,0.006,0.098,0.01,0.131,0.01c0.346,0,0.656-0.091,0.934-0.271
		c0.277-0.18,0.415-0.459,0.415-0.834c0-0.299-0.101-0.545-0.302-0.74s-0.462-0.293-0.781-0.293c-0.315,0-0.578,0.1-0.789,0.297
		c-0.211,0.199-0.346,0.496-0.406,0.895l-0.812-0.145c0.1-0.545,0.325-0.967,0.678-1.266c0.352-0.3,0.789-0.449,1.312-0.449
		c0.361,0,0.693,0.077,0.997,0.232c0.304,0.154,0.536,0.366,0.696,0.634c0.162,0.268,0.242,0.552,0.242,0.853
		c0,0.285-0.076,0.546-0.23,0.781c-0.153,0.234-0.381,0.42-0.682,0.559c0.392,0.09,0.695,0.277,0.912,0.562
		c0.217,0.283,0.324,0.639,0.324,1.066c0,0.578-0.21,1.066-0.631,1.469c-0.422,0.401-0.953,0.602-1.598,0.602
		c-0.58,0-1.062-0.172-1.445-0.518C385.669,483.347,385.45,482.898,385.396,482.348z"/>
</g>
<g>
</g>
<g>
</g>
<g>
</g>
<g>
</g>
<g>
</g>
<g>
</g>
<g>
</g>
<g>
</g>
<g>
</g>
<g>
</g>
<g>
</g>
<g>
</g>
<g>
</g>
<g>
</g>
<g>
</g>
</svg>
